<?xml version="1.0" encoding="utf-8"?>
<!-- Generator: Adobe Illustrator 26.3.1, SVG Export Plug-In . SVG Version: 6.00 Build 0)  -->
<svg version="1.1" id="Ebene_1" xmlns="http://www.w3.org/2000/svg" xmlns:xlink="http://www.w3.org/1999/xlink" x="0px" y="0px"
	 viewBox="0 0 593.6 374.2" style="enable-background:new 0 0 593.6 374.2;" xml:space="preserve">
<style type="text/css">
	.st0{fill:none;stroke:#696464;stroke-width:2.9984;stroke-linecap:round;stroke-linejoin:round;stroke-miterlimit:10;}
	.st1{fill-rule:evenodd;clip-rule:evenodd;fill:#696464;}
	.st2{fill:#F2F2F2;}
	.st3{font-family:'Calibri';}
	.st4{font-size:12.0106px;}
	.st5{fill-rule:evenodd;clip-rule:evenodd;fill:#F2F2F2;}
	.st6{fill:none;stroke:#DA291C;stroke-width:1.4992;stroke-linecap:round;stroke-linejoin:round;stroke-miterlimit:10;}
	.st7{font-size:15.9716px;}
	.st8{fill:none;stroke:#DA291C;stroke-width:1.1989;stroke-linecap:round;stroke-linejoin:round;stroke-miterlimit:10;}
	.st9{fill:none;stroke:#78BE20;stroke-width:1.4992;stroke-linecap:round;stroke-linejoin:round;stroke-miterlimit:10;}
	.st10{fill:none;stroke:#78BE20;stroke-width:1.1989;stroke-linecap:round;stroke-linejoin:round;stroke-miterlimit:10;}
	.st11{fill:none;stroke:#666666;stroke-width:1.4992;stroke-linecap:round;stroke-linejoin:round;stroke-miterlimit:10;}
	.st12{font-size:10.9885px;}
	.st13{fill:none;stroke:#797471;stroke-width:1.1989;stroke-linecap:round;stroke-linejoin:round;stroke-miterlimit:10;}
	.st14{font-size:14px;}
	.st15{fill:none;stroke:#777777;stroke-width:1.4992;stroke-linecap:round;stroke-linejoin:round;stroke-miterlimit:10;}
	.st16{font-size:11px;}
</style>
<g>
	<line class="st0" x1="86.4" y1="34.5" x2="86.4" y2="53.1"/>
	<polyline class="st1" points="93.7,51.5 86.8,58.5 79.8,51.5 93.7,51.5 	"/>
</g>
<g>
	<line class="st0" x1="294.8" y1="299.1" x2="294.8" y2="332.6"/>
	<polyline class="st1" points="302.6,330.7 294.9,337.7 287.2,330.7 302.6,330.7 	"/>
</g>
<polyline class="st1" points="203.5,175 196.6,182 189.6,175 203.5,175 "/>
<g>
	<line class="st0" x1="132.4" y1="206.8" x2="132.4" y2="240.4"/>
	<polyline class="st1" points="140,238 132.3,244.9 124.6,238 140,238 	"/>
</g>
<g>
	<line class="st0" x1="294.6" y1="205.5" x2="294.6" y2="239.1"/>
	<polyline class="st1" points="302.3,237.2 294.6,244.2 286.9,237.2 302.3,237.2 	"/>
</g>
<line class="st0" x1="464.5" y1="211.2" x2="464.5" y2="240.6"/>
<polyline class="st1" points="472.3,238.2 464.7,245.1 457,238.2 472.3,238.2 "/>
<line class="st0" x1="447.1" y1="148.5" x2="447.1" y2="175.5"/>
<polyline class="st1" points="454,174.1 447.1,181.1 440.1,174.1 454,174.1 "/>
<line class="st0" x1="445.7" y1="40.7" x2="445.7" y2="114.2"/>
<polyline class="st1" points="452.7,112.8 445.7,119.8 438.8,112.8 452.7,112.8 "/>
<rect x="318.2" y="72.7" class="st2" width="3.3" height="6.6"/>
<text transform="matrix(1 0 0 1 345.1898 92.107)" class="st3 st4"> </text>
<rect x="275" y="135.1" class="st2" width="4" height="6.6"/>
<path class="st5" d="M324.8,165.1h263.5c2.3,0,4.2-1.9,4.2-4.2V124c0-2.4-1.9-4.2-4.2-4.2H324.8c-2.4,0-4.3,1.9-4.3,4.2v36.9
	C320.5,163.1,322.4,165.1,324.8,165.1"/>
<path class="st6" d="M324.8,165.1h263.5c2.3,0,4.2-1.9,4.2-4.2V124c0-2.4-1.9-4.2-4.2-4.2H324.8c-2.4,0-4.3,1.9-4.3,4.2v36.9
	C320.5,163.1,322.4,165.1,324.8,165.1z"/>
<text transform="matrix(1 0 0 1 450.6761 147.2413)" class="st3 st7"> </text>
<text transform="matrix(1 0 0 1 428.2533 147.2413)" class="st3 st7">C++ API</text>
<text transform="matrix(1 0 0 1 478.6586 147.241)" class="st3 st7"> </text>
<rect x="66.7" y="197.4" class="st2" width="8.8" height="6.6"/>
<rect x="66.7" y="197.4" class="st8" width="8.8" height="6.6"/>
<path class="st5" d="M5,227.4H588c2.4,0,4.3-1.9,4.3-4.3v-36.8c0-2.4-1.9-4.3-4.3-4.3H5c-2.3,0-4.2,1.9-4.2,4.3v36.8
	C0.8,225.5,2.7,227.4,5,227.4"/>
<path class="st6" d="M5,227.4h583.4c2.4,0,4.3-1.9,4.3-4.3v-36.8c0-2.4-1.9-4.3-4.3-4.3H5c-2.3,0-4.2,1.9-4.2,4.3v36.8
	C0.8,225.5,2.7,227.4,5,227.4z"/>
<text transform="matrix(1 0 0 1 297.5658 209.53)" class="st3 st7"> </text>
<text transform="matrix(1 0 0 1 309.7025 209.5307)" class="st3 st7"> </text>
<text transform="matrix(1 0 0 1 271.2806 209.5302)" class="st3 st7">C API</text>
<path class="st5" d="M406,289.7h115.7c2.1,0,3.7-1.9,3.7-4.2v-36.9c0-2.4-1.6-4.2-3.7-4.2H406c-2.1,0-3.7,1.9-3.7,4.2v36.9
	C402.3,287.8,404,289.7,406,289.7"/>
<path class="st9" d="M406,289.7h115.7c2.1,0,3.7-1.9,3.7-4.2v-36.9c0-2.4-1.6-4.2-3.7-4.2H406c-2.1,0-3.7,1.9-3.7,4.2v36.9
	C402.3,287.8,404,289.7,406,289.7z"/>
<text transform="matrix(0.8689 0 0 1 439.9501 277.8889)" class="st3 st4"> </text>
<text transform="matrix(0.8689 0 0 1 483.6328 277.8889)" class="st3 st4"> </text>
<path class="st5" d="M235.4,289.7h115.7c2,0,3.7-1.9,3.7-4.2v-36.9c0-2.4-1.7-4.2-3.7-4.2H235.4c-2,0-3.7,1.9-3.7,4.2v36.9
	C231.8,287.8,233.4,289.7,235.4,289.7"/>
<path class="st9" d="M235.4,289.7h115.7c2,0,3.7-1.9,3.7-4.2v-36.9c0-2.4-1.7-4.2-3.7-4.2H235.4c-2,0-3.7,1.9-3.7,4.2v36.9
	C231.8,287.8,233.4,289.7,235.4,289.7z"/>
<text transform="matrix(0.8689 0 0 1 249.0756 277.2502)" class="st3 st4"> </text>
<text transform="matrix(0.8689 0 0 1 278.4291 277.2502)" class="st3 st4"> </text>
<text transform="matrix(0.8689 0 0 1 322.1118 277.2502)" class="st3 st4"> </text>
<rect x="133.1" y="349.5" class="st2" width="1.7" height="5.3"/>
<rect x="133.1" y="349.5" class="st10" width="1.7" height="5.3"/>
<path class="st5" d="M19.6,373.5h555.1c9.6,0,17.6-1.9,17.6-4.3v-27.7c0-2.4-8-4.3-17.6-4.3H19.6c-9.6,0-17.6,1.9-17.6,4.3v27.7
	C2.1,371.5,10,373.5,19.6,373.5"/>
<path class="st11" d="M18.7,373.5h555.9c9.6,0,17.6-1.9,17.6-4.3v-27.7c0-2.4-8-4.3-17.6-4.3H18.7c-9.6,0-17.6,1.9-17.6,4.3v27.7
	C1.1,371.5,9.1,373.5,18.7,373.5z"/>
<text transform="matrix(0.7979 0 0 1 155.9438 365.8605)" class="st3 st12"> </text>
<text transform="matrix(0.7979 0 0 1 172.2075 365.8605)" class="st3 st12"> </text>
<text transform="matrix(0.7979 0 0 1 195.5019 365.8605)" class="st3 st12"> </text>
<text transform="matrix(0.7979 0 0 1 225.5312 365.8605)" class="st3 st12"> </text>
<rect x="83.6" y="260.2" class="st2" width="1.8" height="6.6"/>
<rect x="83.6" y="260.2" class="st13" width="1.8" height="6.6"/>
<path class="st5" d="M73.5,290.1h115.7c2,0,3.7-1.9,3.7-4.2v-36.9c0-2.4-1.7-4.2-3.7-4.2H73.5c-2.1,0-3.7,1.9-3.7,4.2v36.9
	C69.8,288.2,71.5,290.1,73.5,290.1"/>
<path class="st9" d="M73.5,290.1h115.7c2,0,3.7-1.9,3.7-4.2v-36.9c0-2.4-1.7-4.2-3.7-4.2H73.5c-2.1,0-3.7,1.9-3.7,4.2v36.9
	C69.8,288.2,71.5,290.1,73.5,290.1z"/>
<text transform="matrix(0.8689 0 0 1 106.3891 278.3224)" class="st3 st4"> </text>
<text transform="matrix(0.8689 0 0 1 81.6186 278.3224)"><tspan x="0" y="0" class="st3 st4">Vimba Transport L</tspan><tspan x="89.2" y="0" class="st3 st4">ayers</tspan></text>
<g>
	<defs>
		<rect id="SVGID_1_" x="98.9" y="250.3" width="68.6" height="14.7"/>
	</defs>
	<clipPath id="SVGID_00000104693914106164224540000009881145297898333866_">
		<use xlink:href="#SVGID_1_"  style="overflow:visible;"/>
	</clipPath>
	
		<g transform="matrix(1 0 0 1 7.629395e-06 0)" style="clip-path:url(#SVGID_00000104693914106164224540000009881145297898333866_);">
		
			<image style="overflow:visible;" width="200" height="42" xlink:href="5C987269.jpg"  transform="matrix(0.3431 0 0 0.3499 98.8815 250.3401)">
		</image>
	</g>
</g>
<rect x="131.8" y="298.4" class="st2" width="1.7" height="4.2"/>
<rect x="131.8" y="298.4" class="st13" width="1.7" height="4.2"/>
<path class="st5" d="M19.9,319.2h554.4c9.6,0,17.6-1.9,17.6-4.3v-19.8c0-2.4-8-4.2-17.6-4.2H19.9c-9.8,0-17.8,1.9-17.8,4.2v19.8
	C2.1,317.3,10,319.2,19.9,319.2"/>
<path class="st9" d="M19,319.2h555.7c9.6,0,17.6-1.9,17.6-4.3v-19.8c0-2.4-8-4.2-17.6-4.2H19c-9.9,0-17.9,1.9-17.9,4.2v19.8
	C1.1,317.3,9.1,319.2,19,319.2z"/>
<text transform="matrix(0.7979 0 0 1 160.933 300.1076)" class="st3 st4"> </text>
<text transform="matrix(0.7979 0 0 1 183.2153 300.1076)" class="st3 st4"> </text>
<text transform="matrix(0.8834 0 0 1 107.538 308.1076)" class="st3 st4"> Optional or mandatory drivers depending on camera interface, vendor, platform, and OS </text>
<text transform="matrix(0.7979 0 0 1 209.2045 300.1076)" class="st3 st4"> </text>
<g>
	<polyline class="st1" points="287.6,68 275.6,67.5 276.1,56.1 287.6,68 	"/>
	<line class="st0" x1="340.4" y1="22.4" x2="279.2" y2="63.9"/>
</g>
<line class="st0" x1="84.5" y1="103.2" x2="84.5" y2="177.2"/>
<line class="st0" x1="196.2" y1="35.4" x2="196.2" y2="175.5"/>
<line class="st0" x1="255.7" y1="34" x2="255.7" y2="52.9"/>
<polyline class="st1" points="262.6,51.5 255.7,58.5 248.7,51.5 262.6,51.5 "/>
<rect x="26.4" y="14.8" class="st2" width="3.1" height="5"/>
<path class="st5" d="M166.7,40.3h118.5c1.4,0,2.5-1.9,2.5-4.2V10.6c0-2.4-1.1-4.3-2.5-4.3H166.7c-1.4,0-2.5,1.9-2.5,4.3v25.5
	C164.1,38.4,165.3,40.3,166.7,40.3"/>
<path class="st11" d="M166.6,40.3h117.6c1.4,0,2.5-1.9,2.5-4.2V10.6c0-2.4-1.1-4.3-2.5-4.3H166.6c-1.4,0-2.5,1.9-2.5,4.3v25.5
	C164.1,38.4,165.3,40.3,166.6,40.3z"/>
<text transform="matrix(1 0 0 1 187.813 28.1565)" class="st3 st14">C</text>
<text transform="matrix(1 0 0 1 196.3091 28.1563)" class="st3 st7"> </text>
<text transform="matrix(1 0 0 1 199.9498 28.1562)"><tspan x="0" y="0" class="st3 st14">A</tspan><tspan x="8.1" y="0" class="st3 st14">ppli</tspan><tspan x="29.3" y="0" class="st3 st14">c</tspan><tspan x="35.2" y="0" class="st3 st14">a</tspan><tspan x="41.9" y="0" class="st3 st14">tion</tspan></text>
<rect x="292.2" y="17.8" class="st2" width="3.2" height="5"/>
<path class="st5" d="M328.3,40.3h257.9c2.9,0,5.4-1.9,5.4-4.2V10.6c0-2.4-2.4-4.3-5.4-4.3H328.3c-2.9,0-5.4,1.9-5.4,4.3v25.5
	C322.9,38.4,325.3,40.3,328.3,40.3"/>
<path class="st11" d="M328.3,40.3h258.9c2.9,0,5.4-1.9,5.4-4.2V10.6c0-2.4-2.5-4.3-5.4-4.3H328.3c-2.9,0-5.4,1.9-5.4,4.3v25.5
	C322.9,38.4,325.3,40.3,328.3,40.3z"/>
<text transform="matrix(1 0 0 1 361.6968 28.1563)" class="st3 st7"> </text>
<text transform="matrix(1 0 0 1 401.3384 28.1562)"><tspan x="0" y="0" class="st3 st14">C++ A</tspan><tspan x="32.7" y="0" class="st3 st14">ppli</tspan><tspan x="53.9" y="0" class="st3 st14">c</tspan><tspan x="59.8" y="0" class="st3 st14">a</tspan><tspan x="66.5" y="0" class="st3 st14">tion</tspan></text>
<text transform="matrix(1 0 0 1 362.2535 85.9732)" class="st3 st7"> </text>
<text transform="matrix(1 0 0 1 390.2994 85.9734)" class="st3 st7"> </text>
<path class="st5" d="M179,103.8h91c2.4,0,4.2-1.9,4.2-4.2V62.7c0-2.3-1.9-4.2-4.2-4.2h-91c-2.3,0-4.2,1.9-4.2,4.2v36.9
	C174.8,101.9,176.7,103.8,179,103.8"/>
<path class="st6" d="M179,103.8h91c2.4,0,4.2-1.9,4.2-4.2V62.7c0-2.3-1.9-4.2-4.2-4.2h-91c-2.3,0-4.2,1.9-4.2,4.2v36.9
	C174.8,101.9,176.7,103.8,179,103.8z"/>
<text transform="matrix(1 0 0 1 212.8629 76.199)" class="st3 st4"> </text>
<text transform="matrix(1 0 0 1 207.5416 76.1987)" class="st3 st4"> Image</text>
<text transform="matrix(1 0 0 1 181.6871 91.1524)"><tspan x="0" y="0" class="st3 st4">Transform Lib</tspan><tspan x="67.3" y="0" class="st3 st4">rary</tspan></text>
<path class="st5" d="M14.7,40.3H139c1.4,0,2.6-1.9,2.6-4.2V10.6c0-2.4-1.2-4.3-2.6-4.3H14.7c-1.4,0-2.6,1.9-2.6,4.3v25.5
	C12.1,38.4,13.3,40.3,14.7,40.3"/>
<path class="st15" d="M14.7,40.3H139c1.4,0,2.6-1.9,2.6-4.2V10.6c0-2.4-1.2-4.3-2.6-4.3H14.7c-1.4,0-2.6,1.9-2.6,4.3v25.5
	C12.1,38.4,13.3,40.3,14.7,40.3z"/>
<text transform="matrix(1 0 0 1 20.4781 28.2056)" class="st3 st14">Python Application</text>
<text transform="matrix(1 0 0 1 196.9468 37.2058)" class="st3 st7"> </text>
<path class="st5" d="M5.8,103.7h140.7c2.3,0,4.2-1.9,4.2-4.2V62.6c0-2.3-1.9-4.2-4.2-4.2H5.8c-2.4,0-4.2,1.9-4.2,4.2v36.9
	C1.6,101.9,3.4,103.7,5.8,103.7"/>
<path class="st6" d="M5.8,103.7h140.7c2.3,0,4.2-1.9,4.2-4.2V62.6c0-2.3-1.9-4.2-4.2-4.2H5.8c-2.4,0-4.2,1.9-4.2,4.2v36.9
	C1.6,101.9,3.4,103.7,5.8,103.7z"/>
<text transform="matrix(1 0 0 1 49.7184 76.8902)" class="st3 st14">Python API</text>
<text transform="matrix(1 0 0 1 70.3082 85.89)" class="st3 st7"> </text>
<text transform="matrix(1 0 0 1 98.3541 85.8902)" class="st3 st7"> </text>
<text transform="matrix(1 0 0 1 11.1962 93.5235)" class="st3 st16">(Wrapper around VMB C API)</text>
<text transform="matrix(1 0 0 1 492.3922 28.9536)" class="st3 st7"> </text>
<text transform="matrix(1 0 0 1 493.0299 38.0031)" class="st3 st7"> </text>
<polyline class="st1" points="91.5,174.9 84.5,181.8 77.6,174.9 91.5,174.9 "/>
<text transform="matrix(0.8689 0 0 1 242.145 278.051)"><tspan x="0" y="0" class="st3 st4">SynViewTransport L</tspan><tspan x="96.6" y="0" class="st3 st4">ayers</tspan></text>
<text transform="matrix(0.8689 0 0 1 406.5663 278.6887)"><tspan x="0" y="0" class="st3 st4">3rd-Party Transport L</tspan><tspan x="103.7" y="0" class="st3 st4">ayers</tspan></text>
<text transform="matrix(0.879 0 0 1 146.9719 361.0391)" class="st3 st4">Network interface card, USB interface card, etc.</text>
<g>
	<defs>
		<rect id="SVGID_00000109716945612027810330000000137675270492656550_" x="261.5" y="249.7" width="68.6" height="14.7"/>
	</defs>
	<clipPath id="SVGID_00000114768155881533273220000001640316984555330447_">
		<use xlink:href="#SVGID_00000109716945612027810330000000137675270492656550_"  style="overflow:visible;"/>
	</clipPath>
	
		<g transform="matrix(1 0 0 1 0 1.525879e-05)" style="clip-path:url(#SVGID_00000114768155881533273220000001640316984555330447_);">
		
			<image style="overflow:visible;" width="200" height="42" xlink:href="5C98726B.jpg"  transform="matrix(0.3431 0 0 0.3499 261.524 249.7448)">
		</image>
	</g>
</g>
<g>
	<defs>
		<rect id="SVGID_00000180345835276189697440000004994284856864906409_" x="431.6" y="250.5" width="68.6" height="14.7"/>
	</defs>
	<clipPath id="SVGID_00000049936212552144839710000008569432521233767070_">
		<use xlink:href="#SVGID_00000180345835276189697440000004994284856864906409_"  style="overflow:visible;"/>
	</clipPath>
	<g style="clip-path:url(#SVGID_00000049936212552144839710000008569432521233767070_);">
		
			<image style="overflow:visible;" width="200" height="42" xlink:href="5C98726E.jpg"  transform="matrix(0.3431 0 0 0.3499 431.6132 250.4964)">
		</image>
	</g>
</g>
<polyline class="st1" points="167.4,76.7 174.4,83.7 167.4,90.7 167.4,76.7 "/>
<line class="st0" x1="152" y1="84.1" x2="170.5" y2="84.1"/>
</svg>
