<?xml version="1.0" encoding="utf-8"?>
<!-- Generator: Adobe Illustrator 26.3.1, SVG Export Plug-In . SVG Version: 6.00 Build 0)  -->
<svg version="1.1" xmlns="http://www.w3.org/2000/svg" xmlns:xlink="http://www.w3.org/1999/xlink" x="0px" y="0px"
	 viewBox="0 0 611.9 116.5" style="enable-background:new 0 0 611.9 116.5;" xml:space="preserve">
<style type="text/css">
	.st0{fill:#E42313;}
	.st1{fill:url(#SVGID_1_);}
	.st2{fill:url(#SVGID_00000121996245271875424730000008966096739977422005_);}
	.st3{fill:#FFFFFF;}
</style>
<g id="logo">
	<path class="st0" d="M37.8,32.6C46.4,11.8,61,0,79.6,0c9.5,0,27.6,0,27.6,0c-3,0-7.4,0.2-14.8,16.8c-2.8,6.4-32.6,71.2-37.6,81.9
		c-4.3,9.2-11.7,16.5-22.9,16.5c-6.3,0-19.2,0-31.9,0L37.8,32.6z"/>
	<path class="st0" d="M152.4,84.1c-6.6,15.7-22.6,31.1-37.5,31.1c-6,0-16.5,0-29.8,0c7.7,0,15.1-19,15.1-19s33.6-74.1,36.7-80.9
		c4.3-9.2,13-15.4,21.9-15.4c6.3,0,32.6,0,32.6,0L152.4,84.1z"/>
	<linearGradient id="SVGID_1_" gradientUnits="userSpaceOnUse" x1="113.544" y1="57.9434" x2="113.544" y2="1.000000e-03">
		<stop  offset="0.17" style="stop-color:#C5210D"/>
		<stop  offset="0.3736" style="stop-color:#C3210D"/>
		<stop  offset="0.537" style="stop-color:#BB210B"/>
		<stop  offset="0.6866" style="stop-color:#AF2009"/>
		<stop  offset="0.8279" style="stop-color:#9F1E06"/>
		<stop  offset="0.9622" style="stop-color:#881A01"/>
		<stop  offset="1" style="stop-color:#811900"/>
	</linearGradient>
	<path class="st1" d="M117.5,57.9c4.4-9.7,8.9-19.6,12.5-27.4c-2.9-6.4-5.4-11.8-6.2-13.7C119.9,8,116.4,0,106.9,0
		c-2.3,0-5.3,0.4-9.8,7.7c0,6,2.2,10.2,4.9,15.9C104.6,29,111.5,44.4,117.5,57.9z"/>
	
		<linearGradient id="SVGID_00000081619911935055955710000004461663236487195071_" gradientUnits="userSpaceOnUse" x1="78.483" y1="57.461" x2="78.483" y2="115.2149">
		<stop  offset="0.17" style="stop-color:#C5210D"/>
		<stop  offset="0.3736" style="stop-color:#C3210D"/>
		<stop  offset="0.537" style="stop-color:#BB210B"/>
		<stop  offset="0.6866" style="stop-color:#AF2009"/>
		<stop  offset="0.8279" style="stop-color:#9F1E06"/>
		<stop  offset="0.9622" style="stop-color:#881A01"/>
		<stop  offset="1" style="stop-color:#811900"/>
	</linearGradient>
	<path style="fill:url(#SVGID_00000081619911935055955710000004461663236487195071_);" d="M95.6,105.5c0.4-3.7-0.6-7-1.8-9.3
		c-4.1-8-13.7-26.5-20.1-38.8c-4.5,9.8-9,19.6-12.6,27.3c4.5,8.9,8.4,16.6,10,19.6c3.8,7.3,9.5,10.8,13.9,10.8
		C89,115.1,92.8,110.3,95.6,105.5z"/>
</g>
<g id="logotype">
	<g>
		<path class="st3" d="M479.2,107c1.8,1.1,3.8,2,6.1,2.8c2.3,0.7,4.7,1.1,7.3,1.1c3,0,5.3-0.6,6.9-1.7c1.7-1.1,2.5-2.8,2.5-4.9
			c0-1.8-0.6-3.1-1.9-4.1c-1.2-1-2.8-1.7-4.6-2.3c-1.8-0.6-3.9-1.2-6-1.6c-2.2-0.5-4.2-1.2-6-2.1c-1.8-0.9-3.4-2.1-4.6-3.7
			c-1.2-1.6-1.9-3.7-1.9-6.4c0-1.9,0.4-3.6,1.2-5.2c0.8-1.5,1.8-2.8,3.2-3.9c1.4-1.1,3-1.9,4.9-2.5c1.9-0.6,3.9-0.9,6.1-0.9
			c2.4,0,4.9,0.3,7.4,0.9c1.1,0.3,2.3,0.5,3.4,1c2.6,1.1,2.9,3.4,2.2,4.6c-0.6,1.3-1.1,2.1-1.1,2.1c-1.8-0.9-3.7-1.7-5.8-2.2
			c-2.1-0.5-4.1-0.8-6.1-0.8c-2.6,0-4.7,0.6-6.3,1.7c-1.6,1.2-2.3,2.8-2.3,4.9c0,1.8,0.6,3.1,1.9,4c1.2,0.9,2.8,1.7,4.6,2.3
			c1.8,0.6,3.8,1.1,6,1.6c2.1,0.5,4.1,1.2,6,2.1c1.8,0.9,3.4,2.2,4.6,3.8c1.2,1.6,1.9,3.8,1.9,6.5c0,4-1.4,7-4.3,9.2
			c-2.9,2.2-6.8,3.3-11.8,3.3c-3.2,0-6.2-0.4-8.9-1.2c-1.2-0.4-2.4-0.8-3.5-1.2c-1.8-0.7-3.3-3-2.1-5
			C478.7,107.8,479.2,107,479.2,107z"/>
		<path class="st3" d="M248.1,115.4c0,0-19.1-50.7-20.2-53.5c-1.2-3.3-1.6-4.2-4.5-4.2c-0.2,0-2.2,0-2.4,0c-3.1,0-3.5,0.7-4.8,4.3
			c-1.1,3.1-20.2,53.5-20.2,53.5s3,0,3.3,0c2.8,0,4.8-1,6.4-5.4c0.4-1,3.1-8.8,3.1-8.8l2-5.5h22.5l2,5.5c0,0,2.7,7.8,3.1,8.8
			c1.6,4.4,3.7,5.4,6.4,5.4C245.1,115.4,248.1,115.4,248.1,115.4C248.1,115.4,248.1,115.4,248.1,115.4L248.1,115.4z M221.9,64.8h0.2
			l8.9,24.9h-17.9L221.9,64.8z"/>
		<path class="st3" d="M337.3,83.1c-0.7-2.3-1.8-4.4-3.2-6.1c-1.4-1.7-3.2-3.1-5.4-4c-2.2-1-4.8-1.4-7.8-1.4c-2.9,0-5.6,0.5-8.1,1.6
			c-2.5,1.1-4.7,2.5-6.5,4.4c-1.8,1.9-3.2,4.2-4.3,6.9c-1,2.7-1.6,5.8-1.6,9.1c0,7.2,1.8,12.8,5.4,16.8c3.6,4.1,8.7,6.1,15.2,6.1
			c3,0,5.8-0.5,8.5-1.4c1.4-0.5,1.7-0.6,2.9-1.2c1.5-0.7,3.7-2.9,2.2-5.9l-0.8-1.3c-1.8,1.2-3.7,2.1-5.9,2.9
			c-2.1,0.8-4.4,1.2-6.7,1.2c-4.7,0-8.2-1.4-10.5-4.3c-2.1-2.6-3.3-6.2-3.6-10.8c0,0,27.2,0,28,0c2.1,0,2.6-0.8,2.8-1.4
			c0.1-0.4,0.2-1,0.2-1.7c0.1-0.7,0.1-1.3,0.1-1.9C338.4,88,338,85.4,337.3,83.1z M312.1,80.2c2.4-2.3,5.4-3.4,8.9-3.4
			c2,0,3.7,0.3,5,1c1.4,0.7,2.5,1.6,3.4,2.8c0.9,1.2,1.5,2.5,1.9,4.1c0.4,1.6,0.5,3.2,0.5,5h-24.3C308.1,85.6,309.7,82.5,312.1,80.2
			z"/>
		<path class="st3" d="M529,93.5c0-3.3,0.5-6.3,1.6-9c1-2.7,2.5-5,4.3-6.9c1.8-1.9,4-3.4,6.5-4.4c2.5-1,5.2-1.6,8.2-1.6
			c3,0,5.7,0.5,8.2,1.6c2.5,1,4.7,2.5,6.5,4.4c1.8,1.9,3.2,4.2,4.2,6.9c1,2.7,1.5,5.7,1.5,9c0,3.5-0.5,6.7-1.5,9.5
			c-1,2.8-2.4,5.2-4.2,7.2c-1.8,2-4,3.5-6.5,4.6c-2.5,1.1-5.3,1.6-8.3,1.6c-3.1,0-5.9-0.5-8.4-1.6c-2.5-1.1-4.7-2.6-6.5-4.6
			c-1.8-2-3.2-4.4-4.2-7.2C529.4,100.1,529,97,529,93.5z M535.9,93.5c0,2.6,0.3,5,0.9,7.2c0.6,2.1,1.5,4,2.7,5.5
			c1.2,1.5,2.6,2.7,4.3,3.5c1.7,0.8,3.6,1.2,5.7,1.2c2,0,3.9-0.4,5.6-1.2c1.7-0.8,3.1-2,4.3-3.5c1.2-1.5,2.1-3.4,2.7-5.5
			c0.6-2.1,0.9-4.5,0.9-7.2c0-2.5-0.3-4.7-1-6.7c-0.7-2-1.6-3.7-2.8-5.2c-1.2-1.4-2.6-2.5-4.3-3.3c-1.6-0.8-3.5-1.2-5.4-1.2
			c-2,0-3.8,0.4-5.5,1.2c-1.7,0.8-3.1,1.9-4.3,3.3c-1.2,1.4-2.2,3.1-2.8,5.2C536.2,88.7,535.9,91,535.9,93.5z"/>
		<path class="st3" d="M286.4,63.2c0,1.9,1.5,3.4,3.4,3.4l0,0c1.9,0,3.4-1.5,3.4-3.4v-2.4c0-1.9-1.5-3.4-3.4-3.4l0,0
			c-1.9,0-3.4,1.5-3.4,3.4V63.2z"/>
		<path class="st3" d="M463.3,63.2c0,1.9,1.5,3.4,3.4,3.4l0,0c1.9,0,3.4-1.5,3.4-3.4v-2.4c0-1.9-1.5-3.4-3.4-3.4l0,0
			c-1.9,0-3.4,1.5-3.4,3.4V63.2z"/>
		<path class="st3" d="M515.1,63.2c0,1.9,1.5,3.4,3.4,3.4l0,0c1.9,0,3.4-1.5,3.4-3.4v-2.4c0-1.9-1.5-3.4-3.4-3.4l0,0
			c-1.9,0-3.4,1.5-3.4,3.4V63.2z"/>
		<path class="st3" d="M457.9,57.7c0,0-1.3,0-2.4,0c-0.7,0-1.4,0-1.7,0c-2.2,0-4,1-5.6,5.4c-0.3,0.8-15.9,44.4-15.9,44.4h-0.2
			c0,0-15.5-43.6-15.8-44.4c-1.6-4.4-3.4-5.4-5.6-5.4c-0.3,0-1,0-1.7,0c-1.2,0-2.4,0-2.4,0h-0.1c0,0,19.8,53.1,20.3,54.5
			c0.8,2.4,2.2,3.3,3.2,3.3c0.9,0,3.4,0,3.4,0c1.7,0,2.7-0.4,3.8-3C438.3,109.9,457.9,57.7,457.9,57.7L457.9,57.7z"/>
		<path class="st3" d="M260.4,53.1h-1.1c-3.5,0-5.8,1-5.8,7.2c0,3.1,0,55,0,55s1.5,0,3.4,0c1.9,0,3.4-1.5,3.4-3.4L260.4,53.1z"/>
		<path class="st3" d="M276.8,53.1h-1.1c-3.5,0-5.8,1-5.8,6.7c0,2.7,0,55.5,0,55.5s1.5,0,3.4,0c1.9,0,3.4-1.5,3.4-3.4L276.8,53.1z"
			/>
		<path class="st3" d="M292.2,72.8c-3.4,0-5.7,0.9-5.8,6.4h0l0,36.2c0,0,1.5,0,3.4,0c1.9,0,3.4-1.5,3.4-3.4V72.8H292.2z"/>
		<path class="st3" d="M469,72.8c-3.4,0-5.7,0.9-5.8,6.4h0l0,36.2c0,0,1.5,0,3.4,0c1.9,0,3.4-1.5,3.4-3.4V72.8H469z"/>
		<path class="st3" d="M520.8,72.8c-3.4,0-5.7,0.9-5.8,6.4h0l0,36.2c0,0,1.5,0,3.4,0c1.9,0,3.4-1.5,3.4-3.4V72.8H520.8z"/>
		<path class="st3" d="M611.9,85.4c-0.1-1.8-0.3-3.5-0.7-5.1c-0.5-1.8-1.3-3.4-2.4-4.7c-1.1-1.3-2.5-2.3-4.2-3
			c-1.7-0.7-3.8-1.1-6.2-1.1c-3,0-5.8,0.7-8.2,2c-2.5,1.3-4.6,2.9-6.4,4.9l-0.1-0.1c-0.4-4.1-2-5.7-4.9-5.7h-1.8h0l0,42.8
			c0,0,1.5,0,3.4,0c1.9,0,3.4-1.5,3.4-3.4l0-28.1c1.8-2.1,3.7-3.8,5.9-5c2.2-1.2,4.6-1.8,7.2-1.8c3,0,5.1,0.8,6.3,2.5
			c1.2,1.7,1.9,3.9,1.9,6.7c0,0.6,0,29.1,0,29.1s1.5,0,3.4,0c1.9,0,3.4-1.5,3.4-3.4V85.4z"/>
		<path class="st3" d="M380.1,53.1c-3.5,0-5.8,1-5.8,7.2c0,0.8,0,14.8,0,17.7c-1.8-1.9-3.8-3.4-6-4.7c-2.3-1.2-4.8-1.9-7.6-1.9
			c-2.6,0-5,0.5-7.1,1.4c-2.1,1-4,2.4-5.5,4.2c-1.5,1.9-2.7,4.1-3.5,6.8c-0.8,2.7-1.2,5.7-1.2,9.2c0,7.4,1.5,13.1,4.6,17.1
			c3.1,4,7.3,6,12.7,6c3,0,5.6-0.6,7.8-1.9c2.2-1.2,4.1-2.7,5.9-4.6c0,3.3,1.9,5.4,4,5.4c1.4,0,2.9,0,2.9,0V53.1H380.1z
			 M374.3,104.6c-1.8,2-3.6,3.6-5.6,4.7c-2,1.1-4.2,1.6-6.5,1.6c-4,0-7-1.6-9-4.7c-2-3.1-3.1-7.4-3.1-12.8c0-5.2,1.1-9.2,3.2-12
			c2.1-2.8,5.1-4.2,8.9-4.2c2.4,0,4.6,0.6,6.6,1.7c2,1.2,3.8,2.7,5.6,4.6C374.3,90.8,374.3,98.6,374.3,104.6z"/>
	</g>
</g>
</svg>
