<svg id="Ebene_1" data-name="Ebene 1" xmlns="http://www.w3.org/2000/svg" viewBox="0 0 489.12 68.63"><defs><style>.cls-1,.cls-2{fill:#e60000;}.cls-2{stroke:#e20917;stroke-width:2px;}</style></defs><path class="cls-1" d="M85.05,85.41l32.75,37.34L147,85.41h16.77l-37.54,48H109.91L67,85.41Z" transform="translate(-66.98 -65.47)"/><path class="cls-1" d="M184.68,85.41v48H172.2v-48Z" transform="translate(-66.98 -65.47)"/><path class="cls-1" d="M298.79,85.41c9.38,0,13.68,3.6,13.68,11.38v36.64H298.79V96.79H264v36.64H250.27V96.79H214.63v36.64H201v-48Z" transform="translate(-66.98 -65.47)"/><path class="cls-1" d="M341.81,66.84V84.91h63.8c9.48,0,15.07,5.29,15.17,14.28l.3,20.76c.1,5-2.09,9.49-5.59,11.48-2.3,1.4-7,2-14.47,2H328.34V66.84Zm65.29,53.91V96.89H342v23.86Z" transform="translate(-66.98 -65.47)"/><path class="cls-1" d="M504.15,134.11,471.4,96.77l-29.15,37.34H425.48l37.53-48h16.28l42.93,48Z" transform="translate(-66.98 -65.47)"/><path class="cls-2" d="M524.87,77.05,508.28,66.47h10.44l11.12,7.07,10.58-7.07h9.75L534.72,76.68l18,11.72H541.92l-12.31-8.25-12.4,8.25h-9.39Z" transform="translate(-66.98 -65.47)"/></svg>